<svg width="42" height="36" viewBox="0 0 42 36" fill="none" xmlns="http://www.w3.org/2000/svg">
<path d="M21 31.5001L18.4625 29.5501C15.5167 27.2751 13.0813 25.3126 11.1562 23.6626C9.23125 22.0126 7.7 20.5313 6.5625 19.2188C5.425 17.9063 4.63021 16.7001 4.17812 15.6001C3.72604 14.5001 3.5 13.3751 3.5 12.2251C3.5 9.8751 4.41875 7.9126 6.25625 6.3376C8.09375 4.7626 10.3833 3.9751 13.125 3.9751C14.6417 3.9751 16.0854 4.2501 17.4563 4.8001C18.8271 5.3501 20.0083 6.1251 21 7.1251C21.9917 6.1251 23.1729 5.3501 24.5437 4.8001C25.9146 4.2501 27.3583 3.9751 28.875 3.9751C31.6167 3.9751 33.9062 4.7626 35.7437 6.3376C37.5812 7.9126 38.5 9.8751 38.5 12.2251C38.5 13.3751 38.274 14.5001 37.8219 15.6001C37.3698 16.7001 36.575 17.9063 35.4375 19.2188C34.3 20.5313 32.7687 22.0126 30.8438 23.6626C28.9187 25.3126 26.4833 27.2751 23.5375 29.5501L21 31.5001ZM21 27.4501C23.8 25.3001 26.1042 23.4563 27.9125 21.9188C29.7208 20.3813 31.15 19.0438 32.2 17.9063C33.25 16.7688 33.9792 15.7563 34.3875 14.8688C34.7958 13.9813 35 13.1001 35 12.2251C35 10.7251 34.4167 9.4751 33.25 8.4751C32.0833 7.4751 30.625 6.9751 28.875 6.9751C27.5042 6.9751 26.2354 7.30635 25.0688 7.96885C23.9021 8.63135 23.1 9.4751 22.6625 10.5001H19.3375C18.9 9.4751 18.0979 8.63135 16.9312 7.96885C15.7646 7.30635 14.4958 6.9751 13.125 6.9751C11.375 6.9751 9.91667 7.4751 8.75 8.4751C7.58333 9.4751 7 10.7251 7 12.2251C7 13.1001 7.20417 13.9813 7.6125 14.8688C8.02083 15.7563 8.75 16.7688 9.8 17.9063C10.85 19.0438 12.2792 20.3813 14.0875 21.9188C15.8958 23.4563 18.2 25.3001 21 27.4501Z" fill="#D8A891"/>
</svg>
